<?xml version="1.0" standalone="no"?>
<!DOCTYPE svg PUBLIC "-//W3C//DTD SVG 20010904//EN"
 "http://www.w3.org/TR/2001/REC-SVG-20010904/DTD/svg10.dtd">
<svg version="1.0" xmlns="http://www.w3.org/2000/svg"
 width="468.000000pt" height="468.000000pt" viewBox="0 0 468.000000 468.000000"
 preserveAspectRatio="xMidYMid meet">
<metadata>
Created by potrace 1.14, written by Peter Selinger 2001-2017
</metadata>
<g transform="translate(0.000000,468.000000) scale(0.100000,-0.100000)"
fill="#000000" stroke="none">
<path d="M26 4658 c-13 -7 -16 -162 -3 -174 3 -4 3 -14 -1 -23 -10 -20 -8
-643 2 -659 4 -7 4 -12 -1 -12 -10 0 -9 -212 1 -228 4 -7 4 -12 -1 -12 -4 0
-7 -64 -5 -142 3 -167 3 -146 -1 -228 -2 -36 0 -75 5 -87 4 -13 4 -23 -1 -23
-9 0 -6 -94 4 -109 3 -6 3 -11 -2 -11 -4 0 -7 -91 -5 -202 3 -239 3 -198 -1
-330 -1 -60 1 -108 6 -108 4 0 5 -5 1 -12 -11 -17 -11 -468 -1 -468 5 0 5 -6
1 -12 -11 -17 -11 -228 -1 -228 5 0 5 -5 1 -12 -10 -17 -13 -1469 -3 -1489 5
-9 3 -21 -3 -27 -6 -6 -8 -18 -5 -26 5 -13 62 -15 462 -16 360 0 455 2 456 12
1 7 2 842 3 1855 0 1013 4 1844 7 1848 10 9 139 11 139 2 0 -5 5 -5 12 -1 14
9 472 9 487 -1 6 -3 11 -3 11 2 0 4 11 8 25 8 14 0 25 -4 25 -8 0 -5 5 -5 12
-1 7 4 56 7 110 7 65 0 98 4 99 11 7 62 2 899 -5 903 -13 9 -1061 7 -1074 -1
-7 -4 -12 -4 -12 1 0 10 -211 10 -228 -1 -7 -4 -12 -4 -12 1 0 10 -486 11
-504 1z"/>
<path d="M2810 4660 c-6 -4 -12 -176 -10 -305 7 -453 4 -614 -10 -618 -8 -2
-219 -3 -467 -3 l-453 1 0 -1380 c0 -759 4 -1385 8 -1390 8 -12 410 -14 429
-2 6 4 14 4 17 -1 6 -10 227 -9 243 1 6 4 14 3 18 -2 3 -6 20 -8 38 -5 17 3
37 5 42 5 6 -1 32 -3 60 -5 27 -2 54 -2 60 0 8 3 11 417 10 1367 0 749 2 1373
6 1387 l5 25 203 2 c112 1 206 4 208 7 3 3 14 1 24 -5 11 -5 19 -6 19 -1 0 4
9 8 20 8 11 0 20 -4 20 -9 0 -4 5 -5 11 -2 6 4 49 6 97 6 48 -1 94 -2 102 -2
52 1 121 1 127 0 5 -1 13 0 18 1 6 1 24 1 41 0 l32 -1 -1 460 c0 412 -2 461
-16 464 -29 7 -276 1 -289 -7 -6 -4 -12 -4 -12 1 0 9 -586 12 -600 3z"/>
<path d="M3740 3732 c-7 -3 -10 -625 -10 -1858 l0 -1854 465 0 465 0 -1 1855
c-1 1710 -3 1855 -18 1856 -61 2 -893 3 -901 1z"/>
</g>
</svg>
